<svg width="75" height="35" viewBox="0 0 75 35" fill="none" xmlns="http://www.w3.org/2000/svg">
<g clip-path="url(#clip0_2395_24522)">
<path fill-rule="evenodd" clip-rule="evenodd" d="M67.3706 5.01201C69.1142 5.33517 71.5366 5.16983 72.8618 3.93731C73.1324 3.68429 71.6343 5.86124 69.2645 7.10378C66.0053 8.81478 61.8518 9.01519 58.272 8.60435C58.4423 5.83619 55.8696 3.93731 53.3219 3.93731C51.0347 3.93731 49.3137 5.34769 48.745 7.22653C46.4353 7.02111 44.336 7.06621 41.8184 7.76764C42.6776 3.62668 47.1117 0.813425 53.3595 0.602994C59.6072 0.395069 62.8463 4.17029 67.3706 5.01201Z" fill="#52AE32"/>
<path fill-rule="evenodd" clip-rule="evenodd" d="M39.8169 10.3204C38.0708 10.6185 35.979 12.3471 35.205 12.9909C34.4785 13.5971 33.4138 12.2694 34.268 11.6857C35.2651 11.0043 38.9226 8.70461 42.2043 8.08835C45.9695 7.3794 49.6645 8.39898 53.9057 9.73171C58.1469 11.0644 60.3764 11.1722 64.3671 11.0569C62.2302 15.0776 57.1173 16.4104 53.59 16.3953C49.91 16.3803 46.1599 15.3106 43.8426 12.9433C42.6051 11.6782 41.7884 9.98472 39.8169 10.3229V10.3204Z" fill="#006C4F"/>
<path d="M44.827 31.802H45.6261C45.8817 31.802 46.1146 31.8721 46.1146 32.2303C46.1146 32.5259 45.9443 32.6787 45.6337 32.6787H44.827V31.802ZM44.336 34.2094H44.827V33.052H45.551C46.0044 33.052 46.1096 33.28 46.1096 33.796C46.1096 33.9338 46.1096 34.0866 46.1848 34.2094H46.7109C46.6056 34.0941 46.558 33.796 46.558 33.4704C46.558 33.027 46.31 32.8992 46.1422 32.8767V32.8691C46.2324 32.8366 46.6056 32.6988 46.6056 32.1602C46.6056 31.6842 46.29 31.4011 45.6762 31.4011H44.3335V34.2094H44.336ZM48.3292 31.3335C47.4874 31.3335 46.9839 32.0024 46.9839 32.804C46.9839 33.6056 47.4874 34.277 48.3292 34.277C49.1709 34.277 49.6744 33.6081 49.6744 32.804C49.6744 31.9999 49.1709 31.3335 48.3292 31.3335ZM48.3292 31.7343C48.9304 31.7343 49.1834 32.2654 49.1834 32.804C49.1834 33.3426 48.9304 33.8737 48.3292 33.8737C47.7279 33.8737 47.4749 33.3426 47.4749 32.804C47.4749 32.2654 47.7279 31.7343 48.3292 31.7343ZM50.6439 31.802H51.1274C51.899 31.802 52.0643 32.2429 52.0643 32.8065C52.0643 33.3702 51.899 33.8111 51.1274 33.8111H50.6439V31.8045V31.802ZM50.1529 34.2094H51.3178C52.1845 34.2094 52.5578 33.5806 52.5578 32.804C52.5578 32.0274 52.1845 31.3986 51.3178 31.3986H50.1529V34.2069V34.2094ZM54.2187 31.3335C53.377 31.3335 52.8735 32.0024 52.8735 32.804C52.8735 33.6056 53.377 34.277 54.2187 34.277C55.0604 34.277 55.564 33.6081 55.564 32.804C55.564 31.9999 55.0604 31.3335 54.2187 31.3335ZM54.2187 31.7343C54.8199 31.7343 55.073 32.2654 55.073 32.804C55.073 33.3426 54.8199 33.8737 54.2187 33.8737C53.6175 33.8737 53.3645 33.3426 53.3645 32.804C53.3645 32.2654 53.6175 31.7343 54.2187 31.7343ZM56.6587 34.2094H57.2048L58.1643 31.4011H57.6658L56.9468 33.6232H56.9393L56.2353 31.4011H55.7243L56.6612 34.2094H56.6587ZM58.4724 34.2094H58.9634V31.4011H58.4724V34.2094ZM60.5967 31.8846H60.6093L61.0301 33.0921H60.1734L60.5993 31.8846H60.5967ZM59.2665 34.2094H59.7751L60.0381 33.4654H61.1604L61.4234 34.2094H61.9495L60.8673 31.4011H60.3437L59.264 34.2094H59.2665ZM62.0773 33.2725C62.0898 33.9689 62.6084 34.277 63.2497 34.277C63.8083 34.277 64.367 34.024 64.367 33.3952C64.367 33.1046 64.1891 32.789 63.8208 32.6787C63.6755 32.6362 63.0543 32.4733 63.0092 32.4633C62.8088 32.4082 62.6735 32.298 62.6735 32.1001C62.6735 31.817 62.9616 31.7343 63.1895 31.7343C63.5277 31.7343 63.7707 31.8671 63.7958 32.2303H64.2868C64.2868 31.6441 63.7958 31.3335 63.2096 31.3335C62.701 31.3335 62.1825 31.5965 62.1825 32.1602C62.1825 32.4508 62.3253 32.7414 62.8038 32.8716C63.1895 32.9769 63.4451 33.0295 63.643 33.1046C63.7582 33.1472 63.8759 33.2349 63.8759 33.4503C63.8759 33.6658 63.7156 33.8762 63.2822 33.8762C62.8889 33.8762 62.5708 33.7058 62.5708 33.275H62.0798L62.0773 33.2725Z" fill="#888888"/>
<path d="M34.9517 32.4859C34.9993 32.1827 35.1847 32.0149 35.5054 32.0149C35.7809 32.0149 35.9763 32.2253 35.9763 32.4859H34.9517ZM37.0084 33.0445C37.0084 31.9498 36.5249 31.326 35.4077 31.326C34.5183 31.326 33.9221 31.9924 33.9221 32.8115C33.9221 33.7509 34.601 34.282 35.5003 34.282C36.1417 34.282 36.7329 33.999 36.9483 33.3927H35.9438C35.8561 33.528 35.6682 33.5931 35.4928 33.5931C35.1571 33.5931 34.9718 33.3652 34.9442 33.0445H37.0059H37.0084ZM40.3427 32.4633C40.2776 31.6867 39.6488 31.3235 38.9098 31.3235C38.0631 31.3235 37.3867 31.9147 37.3867 32.804C37.3867 33.6933 38.0656 34.2795 38.9098 34.2795C39.6689 34.2795 40.2701 33.8512 40.3753 33.0846H39.3507C39.3282 33.3075 39.1653 33.4979 38.9324 33.4979C38.519 33.4979 38.4614 33.1447 38.4614 32.804C38.4614 32.4633 38.5215 32.1051 38.9324 32.1051C39.0451 32.1051 39.1378 32.1377 39.2029 32.1978C39.2731 32.2579 39.3106 32.3506 39.3232 32.4633H40.3427ZM43.8173 32.799C43.8173 32.0174 43.3389 31.3235 42.2817 31.3235C41.2246 31.3235 40.7461 32.0174 40.7461 32.799C40.7461 33.5806 41.2246 34.282 42.2817 34.282C43.3389 34.282 43.8173 33.5806 43.8173 32.799ZM42.7427 32.799C42.7427 33.0971 42.6875 33.4979 42.2817 33.4979C41.8759 33.4979 41.8208 33.0971 41.8208 32.799C41.8208 32.5009 41.8759 32.1051 42.2817 32.1051C42.6875 32.1051 42.7427 32.5009 42.7427 32.799Z" fill="#1D1D1B"/>
<path fill-rule="evenodd" clip-rule="evenodd" d="M0.178223 28.7031H74.5528V28.9787H0.178223V28.7031Z" fill="#006C4F"/>
<path d="M33.9649 26.3458H35.4404L38.0307 18.7678H36.6829L34.7414 24.765H34.7214L32.8225 18.7678H31.4397L33.9674 26.3458H33.9649ZM38.8599 26.3458H40.1876V18.7678H38.8599V26.3458ZM44.5941 20.0729H44.6267L45.7615 23.3321H43.4467L44.5941 20.0729ZM41.0043 26.3458H42.3746L43.086 24.3392H46.1122L46.8236 26.3458H48.2466L45.3281 18.7678H43.9152L41.0043 26.3458ZM48.5873 23.8206C48.6198 25.6994 50.0202 26.5286 51.7512 26.5286C53.2593 26.5286 54.7649 25.8472 54.7649 24.1488C54.7649 23.3622 54.2864 22.5129 53.2894 22.2173C52.8961 22.0996 51.2201 21.6662 51.1024 21.6336C50.5613 21.4858 50.2005 21.1877 50.2005 20.6566C50.2005 19.8926 50.9746 19.6696 51.5909 19.6696C52.5028 19.6696 53.1616 20.0304 53.2267 21.0074H54.5544C54.5544 19.4266 53.2267 18.5874 51.646 18.5874C50.2757 18.5874 48.8753 19.2989 48.8753 20.817C48.8753 21.6036 49.2586 22.3877 50.5513 22.7384C51.5909 23.024 52.2823 23.1643 52.8109 23.3647C53.119 23.4824 53.4372 23.7154 53.4372 24.2991C53.4372 24.8828 53.0013 25.4464 51.8339 25.4464C50.7717 25.4464 49.9125 24.9905 49.9125 23.8231H48.5847L48.5873 23.8206Z" fill="#888888"/>
<path d="M7.7913 21.7389C7.93659 20.817 8.52279 20.1883 9.39958 20.1883C10.2764 20.1883 10.8325 20.8897 10.8776 21.7389H7.7913ZM13.3627 23.1293C13.4804 20.554 12.1201 18.5073 9.39958 18.5073C7.16251 18.5073 5.30371 20.1757 5.30371 22.5005C5.30371 25.0457 6.98465 26.5387 9.4572 26.5387C11.1532 26.5387 12.7765 25.7747 13.2299 24.0211H10.9052C10.6722 24.5772 10.086 24.8553 9.48726 24.8553C8.43511 24.8553 7.83388 24.1689 7.7913 23.1293H13.3627ZM21.9628 21.506C21.7874 19.5019 20.1065 18.5073 18.2176 18.5073C15.7751 18.5073 14.2395 20.2334 14.2395 22.6458C14.2395 25.0582 15.9354 26.5387 18.2176 26.5387C20.2367 26.5387 21.815 25.3663 22.0354 23.3322H19.623C19.5052 24.1363 19.0668 24.6349 18.2051 24.6349C17.1529 24.6349 16.7271 23.6253 16.7271 22.6458C16.7271 21.5936 16.9475 20.4087 18.3354 20.4087C18.9641 20.4087 19.5353 20.8621 19.5503 21.506H21.9628ZM25.3998 22.5305C25.3998 21.5661 25.7505 20.4087 26.9054 20.4087C28.0602 20.4087 28.426 21.5636 28.426 22.5305C28.426 23.4975 28.0602 24.6374 26.9054 24.6374C25.7505 24.6374 25.3998 23.4975 25.3998 22.5305ZM22.9147 22.5305C22.9147 24.8127 24.5531 26.5412 26.9079 26.5412C29.2627 26.5412 30.9161 24.8127 30.9161 22.5305C30.9161 20.2484 29.2627 18.5073 26.9079 18.5073C24.5531 18.5073 22.9147 20.2484 22.9147 22.5305Z" fill="#1D1D1B"/>
</g>
<defs>
<clipPath id="clip0_2395_24522">
<rect width="74.3745" height="33.6864" fill="white" transform="translate(0.178223 0.595703)"/>
</clipPath>
</defs>
</svg>
