<svg width="11" height="11" viewBox="0 0 11 11" fill="none" xmlns="http://www.w3.org/2000/svg">
<path d="M11 2.88152C11.0004 2.80913 10.9865 2.73738 10.9592 2.67037C10.9318 2.60336 10.8915 2.54241 10.8405 2.49102L8.50849 0.159021C8.4571 0.108046 8.39615 0.0677171 8.32914 0.0403467C8.26213 0.0129762 8.19038 -0.000897579 8.118 -0.000479088C8.04561 -0.000897579 7.97386 0.0129762 7.90685 0.0403467C7.83984 0.0677171 7.77889 0.108046 7.7275 0.159021L6.171 1.71552L0.159509 7.72701C0.108534 7.7784 0.0682054 7.83935 0.0408349 7.90636C0.0134645 7.97337 -0.000409298 8.04512 9.19285e-06 8.11751V10.4495C9.19285e-06 10.5954 0.0579553 10.7353 0.1611 10.8384C0.264245 10.9416 0.404139 10.9995 0.550008 10.9995H2.882C2.95896 11.0037 3.03595 10.9917 3.10795 10.9642C3.17996 10.9367 3.24539 10.8944 3.3 10.84L9.27849 4.82851L10.8405 3.29952C10.8907 3.24621 10.9316 3.18486 10.9615 3.11802C10.9668 3.07418 10.9668 3.02986 10.9615 2.98602C10.9641 2.96041 10.9641 2.93462 10.9615 2.90902L11 2.88152ZM2.6565 9.8995H1.10001V8.34301L6.5615 2.88152L8.118 4.43801L2.6565 9.8995ZM8.89349 3.66251L7.337 2.10602L8.118 1.33052L9.66899 2.88152L8.89349 3.66251Z" fill="black"/>
</svg>
