<svg width="90" height="34" viewBox="0 0 90 34" fill="none" xmlns="http://www.w3.org/2000/svg">
<path fill-rule="evenodd" clip-rule="evenodd" d="M1.11475 0.972412V33.902H23.0052V0.972412H1.11475Z" fill="white"/>
<path fill-rule="evenodd" clip-rule="evenodd" d="M0.941406 0.973389V33.9048H5.20846V0.973389H0.941406Z" fill="#9C9E9F"/>
<path fill-rule="evenodd" clip-rule="evenodd" d="M8.33081 0.973145H19.2586L8.33081 17.4388V0.973145Z" fill="#1B1918"/>
<path fill-rule="evenodd" clip-rule="evenodd" d="M8.33081 33.9046H19.2586L8.33081 17.439V33.9046Z" fill="#1B1918"/>
<path fill-rule="evenodd" clip-rule="evenodd" d="M23.0052 33.9045V0.973145L11.7651 17.4388L23.0052 33.9045Z" fill="#9C9E9F"/>
<path d="M32.0263 10.1908L29.1641 13.043L32.2071 17.3413H30.6505L28.3004 13.9167L27.2761 14.9411V17.3413H26.0308V10.1908H27.2761V13.4346L30.4396 10.1908H32.0263ZM32.9058 10.1908H36.2902C36.9999 10.1908 37.5791 10.3515 38.0276 10.6729C38.4762 10.9875 38.7005 11.4897 38.7005 12.1793C38.7005 12.6078 38.5967 12.976 38.3892 13.284C38.1816 13.5853 37.8904 13.8029 37.5155 13.9368C37.6895 13.977 37.8402 14.0372 37.9674 14.1176C38.0946 14.1979 38.1917 14.2849 38.2586 14.3787C38.3323 14.4724 38.3925 14.5929 38.4394 14.7402C38.4863 14.8875 38.5164 15.0181 38.5298 15.1319C38.5499 15.239 38.5666 15.383 38.58 15.5637C38.5867 15.6106 38.5934 15.701 38.6001 15.8349C38.6135 15.9688 38.6202 16.0592 38.6202 16.106C38.6269 16.1462 38.6336 16.2199 38.6403 16.327C38.6536 16.4341 38.6637 16.5111 38.6704 16.558C38.6771 16.5981 38.6871 16.6617 38.7005 16.7488C38.7206 16.8291 38.7373 16.8927 38.7507 16.9396C38.7641 16.9798 38.7809 17.03 38.8009 17.0902C38.821 17.1438 38.8445 17.1907 38.8712 17.2308C38.898 17.271 38.9282 17.3078 38.9616 17.3413H37.6159C37.5958 17.3145 37.5757 17.2844 37.5556 17.2509C37.5422 17.2108 37.5289 17.1706 37.5155 17.1304C37.5021 17.0835 37.492 17.0434 37.4853 17.0099C37.4786 16.9697 37.4686 16.9195 37.4552 16.8593C37.4485 16.7923 37.4418 16.7387 37.4351 16.6986C37.4351 16.6584 37.4318 16.5981 37.4251 16.5178C37.4184 16.4375 37.4117 16.3772 37.405 16.337C37.405 16.2969 37.4016 16.2266 37.3949 16.1261C37.3883 16.0257 37.3849 15.9554 37.3849 15.9152C37.3514 15.3327 37.2276 14.9344 37.0133 14.7201C36.8058 14.4992 36.4074 14.3887 35.8182 14.3887H34.1511V17.3413H32.9058V10.1908ZM34.1511 11.2152V13.4547H35.8082C36.0492 13.4547 36.2534 13.4413 36.4208 13.4146C36.5882 13.3878 36.7556 13.3409 36.9229 13.274C37.097 13.2003 37.2276 13.0831 37.3146 12.9225C37.4083 12.7618 37.4552 12.5576 37.4552 12.3098C37.4552 12.0822 37.415 11.8947 37.3347 11.7474C37.2543 11.5935 37.1372 11.4796 36.9832 11.406C36.8359 11.3323 36.6819 11.2821 36.5212 11.2553C36.3672 11.2286 36.1831 11.2152 35.9689 11.2152H34.1511ZM41.2625 10.1908V17.3413H39.9971V10.1908H41.2625ZM46.0461 10.1808L48.8078 17.3413H47.4621L46.7792 15.4432H43.9471L43.2441 17.3413H41.9486L44.7104 10.1808H46.0461ZM46.4478 14.4992L45.3832 11.4863L44.2685 14.4992H46.4478Z" fill="#888888"/>
<path d="M31.0421 22.3639V23.1874H28.6419V29.5144H27.6979V23.1874H25.2976V22.3639H31.0421ZM36.7989 22.3639V23.1874H32.7918V25.427H36.5378V26.2204H32.7918V28.6909H36.8491V29.5144H31.8478V22.3639H36.7989ZM44.0431 26.8129C43.9627 27.7167 43.6481 28.4231 43.099 28.9319C42.5567 29.4341 41.8403 29.6851 40.9499 29.6851C39.9322 29.6851 39.1254 29.3504 38.5296 28.6808C37.9337 28.0046 37.6357 27.0941 37.6357 25.9492C37.6357 24.878 37.9337 23.9875 38.5296 23.2778C39.1321 22.5614 39.9623 22.2032 41.0202 22.2032C41.7767 22.2032 42.4429 22.4074 43.0187 22.8158C43.5945 23.2242 43.9159 23.79 43.9828 24.5131H43.0388C42.9317 24.0444 42.6973 23.6795 42.3358 23.4184C41.9742 23.1506 41.529 23.0167 41.0001 23.0167C40.2034 23.0167 39.6008 23.2979 39.1924 23.8603C38.7907 24.4227 38.5898 25.1156 38.5898 25.9392C38.5898 26.8497 38.8041 27.5661 39.2326 28.0883C39.661 28.6105 40.2469 28.8717 40.99 28.8717C41.5993 28.8717 42.0847 28.6976 42.4463 28.3494C42.8078 27.9946 43.0254 27.4824 43.099 26.8129H44.0431ZM45.1948 22.3639H46.2292L50.0053 28.1687V22.3639H50.9192V29.5144H49.8547L46.0986 23.7799V29.5144H45.1948V22.3639ZM55.4955 22.1932C56.5801 22.1932 57.4237 22.5346 58.0263 23.2175C58.6289 23.8938 58.9302 24.7809 58.9302 25.8789C58.9302 26.9836 58.6322 27.8942 58.0364 28.6105C57.4405 29.3269 56.5969 29.6851 55.5056 29.6851C54.9499 29.6851 54.4511 29.5847 54.0092 29.3838C53.5673 29.183 53.2058 28.9051 52.9246 28.5503C52.65 28.1954 52.4391 27.7904 52.2919 27.3351C52.1513 26.8798 52.081 26.3877 52.081 25.8588C52.081 24.7407 52.3889 23.8502 53.0049 23.1874C53.6275 22.5246 54.4578 22.1932 55.4955 22.1932ZM55.4955 23.0167C54.6988 23.0167 54.0862 23.2979 53.6577 23.8603C53.2359 24.416 53.025 25.1056 53.025 25.9291C53.025 26.8263 53.2493 27.5427 53.6978 28.0783C54.1531 28.6072 54.759 28.8717 55.5156 28.8717C56.2655 28.8717 56.8647 28.6039 57.3133 28.0682C57.7619 27.5326 57.9861 26.8196 57.9861 25.9291C57.9861 25.0453 57.7585 24.339 57.3032 23.8101C56.8546 23.2811 56.2521 23.0167 55.4955 23.0167ZM64.8631 28.6909V29.5144H60.1229V22.3639H61.0669V28.6909H64.8631ZM68.7062 22.1932C69.7908 22.1932 70.6344 22.5346 71.237 23.2175C71.8395 23.8938 72.1408 24.7809 72.1408 25.8789C72.1408 26.9836 71.8429 27.8942 71.247 28.6105C70.6511 29.3269 69.8075 29.6851 68.7162 29.6851C68.1605 29.6851 67.6617 29.5847 67.2198 29.3838C66.7779 29.183 66.4164 28.9051 66.1352 28.5503C65.8607 28.1954 65.6498 27.7904 65.5025 27.3351C65.3619 26.8798 65.2916 26.3877 65.2916 25.8588C65.2916 24.7407 65.5996 23.8502 66.2155 23.1874C66.8382 22.5246 67.6684 22.1932 68.7062 22.1932ZM68.7062 23.0167C67.9094 23.0167 67.2968 23.2979 66.8683 23.8603C66.4465 24.416 66.2356 25.1056 66.2356 25.9291C66.2356 26.8263 66.4599 27.5427 66.9085 28.0783C67.3638 28.6072 67.9697 28.8717 68.7263 28.8717C69.4761 28.8717 70.0753 28.6039 70.5239 28.0682C70.9725 27.5326 71.1968 26.8196 71.1968 25.9291C71.1968 25.0453 70.9692 24.339 70.5139 23.8101C70.0653 23.2811 69.4627 23.0167 68.7062 23.0167ZM79.53 25.7283V29.5144H78.9274L78.6864 28.6206C78.1106 29.3303 77.3407 29.6851 76.3765 29.6851C75.3589 29.6851 74.5354 29.347 73.906 28.6708C73.2833 27.9879 72.972 27.0974 72.972 25.9994C72.972 24.9081 73.28 24.0042 73.896 23.2878C74.5186 22.5715 75.3689 22.2133 76.4468 22.2133C76.9423 22.2133 77.4043 22.3003 77.8328 22.4744C78.2612 22.6418 78.6261 22.9096 78.9274 23.2778C79.2287 23.6393 79.3994 24.0678 79.4396 24.5633H78.5157C78.442 24.0946 78.2144 23.7197 77.8328 23.4385C77.4578 23.1506 76.9958 23.0066 76.4468 23.0066C75.6702 23.0066 75.0542 23.2745 74.599 23.8101C74.1437 24.339 73.916 25.0587 73.916 25.9693C73.916 26.8664 74.1437 27.5795 74.599 28.1084C75.0542 28.6373 75.6668 28.9018 76.4368 28.9018C77.1599 28.9018 77.7089 28.6842 78.0838 28.249C78.4655 27.8071 78.6663 27.2246 78.6864 26.5016H76.3966V25.7283H79.53ZM81.9281 22.3639V29.5144H80.9841V22.3639H81.9281ZM86.5457 22.3639L89.3376 29.5144H88.2831L87.4897 27.3251H84.4869L83.6734 29.5144H82.6692L85.4812 22.3639H86.5457ZM87.2085 26.5719L85.9933 23.2678L84.7581 26.5719H87.2085Z" fill="#888888"/>
</svg>
