<svg width="34" height="34" viewBox="0 0 34 34" fill="none" xmlns="http://www.w3.org/2000/svg">
<path d="M16.6331 2.77197C11.2689 2.77197 6.93048 7.11044 6.93048 12.4746C6.93048 19.7516 16.6331 30.4938 16.6331 30.4938C16.6331 30.4938 26.3358 19.7516 26.3358 12.4746C26.3358 7.11044 21.9973 2.77197 16.6331 2.77197ZM16.6331 15.9398C15.7141 15.9398 14.8327 15.5747 14.1828 14.9249C13.533 14.275 13.1679 13.3936 13.1679 12.4746C13.1679 11.5556 13.533 10.6742 14.1828 10.0243C14.8327 9.37447 15.7141 9.00938 16.6331 9.00938C17.5522 9.00938 18.4335 9.37447 19.0834 10.0243C19.7333 10.6742 20.0983 11.5556 20.0983 12.4746C20.0983 13.3936 19.7333 14.275 19.0834 14.9249C18.4335 15.5747 17.5522 15.9398 16.6331 15.9398Z" fill="#006C4F"/>
</svg>
