<svg width="16" height="16" viewBox="0 0 16 16" fill="none" xmlns="http://www.w3.org/2000/svg">
<path d="M11.5 4.31812L15 5.90902V14.1818L10.5455 12.2727L5.45455 14.1818L1 12.2727V3.99993L4.18182 5.27266M10.5455 12.2727V7.81812V12.2727ZM5.45455 14.1818V7.81812V14.1818ZM8 10.5373C8 10.5373 4.18182 7.49993 4.18182 4.6363C4.18182 2.24993 6.09091 0.818115 8 0.818115C9.90909 0.818115 11.8182 2.24993 11.8182 4.6363C11.8182 7.49993 8 10.5373 8 10.5373ZM8.63636 4.6363C8.63636 4.46752 8.56932 4.30566 8.44998 4.18632C8.33064 4.06698 8.16877 3.99993 8 3.99993C7.83123 3.99993 7.66936 4.06698 7.55002 4.18632C7.43068 4.30566 7.36364 4.46752 7.36364 4.6363C7.36364 4.80507 7.43068 4.96693 7.55002 5.08627C7.66936 5.20562 7.83123 5.27266 8 5.27266C8.16877 5.27266 8.33064 5.20562 8.44998 5.08627C8.56932 4.96693 8.63636 4.80507 8.63636 4.6363Z" fill="black"/>
<path d="M11.5 4.31812L15 5.90902V14.1818L10.5455 12.2727M10.5455 12.2727L5.45455 14.1818M10.5455 12.2727V7.81812M5.45455 14.1818L1 12.2727V3.99993L4.18182 5.27266M5.45455 14.1818V7.81812M8 10.5373C8 10.5373 4.18182 7.49993 4.18182 4.6363C4.18182 2.24993 6.09091 0.818115 8 0.818115C9.90909 0.818115 11.8182 2.24993 11.8182 4.6363C11.8182 7.49993 8 10.5373 8 10.5373ZM8.63636 4.6363C8.63636 4.46752 8.56932 4.30566 8.44998 4.18632C8.33064 4.06698 8.16877 3.99993 8 3.99993C7.83123 3.99993 7.66936 4.06698 7.55002 4.18632C7.43068 4.30566 7.36364 4.46752 7.36364 4.6363C7.36364 4.80507 7.43068 4.96693 7.55002 5.08627C7.66936 5.20562 7.83123 5.27266 8 5.27266C8.16877 5.27266 8.33064 5.20562 8.44998 5.08627C8.56932 4.96693 8.63636 4.80507 8.63636 4.6363Z" stroke="white" stroke-width="1.27273"/>
</svg>
