<svg width="16" height="16" viewBox="0 0 16 16" fill="none" xmlns="http://www.w3.org/2000/svg">
<g clip-path="url(#clip0_2395_24535)">
<path d="M1.10883 8.28327C1.10848 9.5357 1.43573 10.7586 2.05798 11.8365L1.04932 15.5193L4.8182 14.5311C5.86063 15.0986 7.02859 15.3959 8.21547 15.396H8.21859C12.1367 15.396 15.3262 12.2077 15.3278 8.28888C15.3286 6.38993 14.5897 4.60429 13.2474 3.26086C11.9052 1.91756 10.1202 1.17738 8.2183 1.17651C4.29972 1.17651 1.1105 4.36463 1.10888 8.28327" fill="#006C4F"/>
<path d="M0.855278 8.28086C0.854874 9.57835 1.19385 10.845 1.83829 11.9615L0.793457 15.7763L4.69748 14.7527C5.77317 15.3391 6.98428 15.6484 8.21666 15.6488H8.21984C12.2785 15.6488 15.5825 12.3459 15.5843 8.28675C15.585 6.31957 14.8195 4.46974 13.4292 3.07819C12.0387 1.68681 10.1898 0.919998 8.21984 0.919189C4.16045 0.919189 0.856896 4.2217 0.855278 8.28086ZM3.18021 11.7692L3.03444 11.5378C2.42166 10.5634 2.09823 9.43749 2.09869 8.28132C2.10002 4.90745 4.8458 2.16254 8.22215 2.16254C9.85723 2.16324 11.3939 2.80063 12.5496 3.95709C13.7053 5.11366 14.3413 6.6511 14.3409 8.28629C14.3394 11.6602 11.5935 14.4054 8.21984 14.4054H8.21741C7.1189 14.4048 6.04154 14.1098 5.10198 13.5523L4.87838 13.4197L2.56165 14.0272L3.18021 11.7691V11.7692Z" fill="url(#paint0_linear_2395_24535)"/>
<path d="M6.37921 5.20357C6.24136 4.89718 6.09628 4.891 5.96519 4.88563C5.85784 4.88101 5.73512 4.88135 5.61252 4.88135C5.4898 4.88135 5.29041 4.92752 5.12188 5.11154C4.95317 5.29573 4.47778 5.74084 4.47778 6.64614C4.47778 7.5515 5.13719 8.42641 5.22911 8.5493C5.32115 8.67196 6.5021 10.5892 8.37245 11.3268C9.92687 11.9398 10.2432 11.8178 10.5806 11.7871C10.918 11.7565 11.6693 11.3421 11.8226 10.9124C11.976 10.4828 11.976 10.1145 11.93 10.0376C11.884 9.9609 11.7613 9.91486 11.5773 9.82288C11.3932 9.73084 10.4885 9.28567 10.3199 9.22425C10.1512 9.16289 10.0285 9.13227 9.90578 9.31652C9.78307 9.50048 9.43069 9.91486 9.32328 10.0376C9.21599 10.1606 9.10858 10.1759 8.92462 10.0839C8.74049 9.99153 8.14787 9.79745 7.44479 9.17063C6.89776 8.68288 6.52845 8.08056 6.4211 7.89631C6.31375 7.71235 6.4096 7.61263 6.50187 7.52094C6.58455 7.43849 6.68595 7.30607 6.77805 7.19866C6.86979 7.0912 6.90042 7.01453 6.96178 6.89181C7.02319 6.76897 6.99245 6.66151 6.94652 6.56947C6.90042 6.47743 6.54284 5.56739 6.37921 5.20357Z" fill="white"/>
</g>
<defs>
<linearGradient id="paint0_linear_2395_24535" x1="740.335" y1="1486.63" x2="740.335" y2="0.919189" gradientUnits="userSpaceOnUse">
<stop stop-color="#F9F9F9"/>
<stop offset="1" stop-color="white"/>
</linearGradient>
<clipPath id="clip0_2395_24535">
<rect width="14.7908" height="14.9064" fill="white" transform="translate(0.793457 0.919189)"/>
</clipPath>
</defs>
</svg>
